<svg width="28" height="30" viewBox="0 0 28 30" fill="none" xmlns="http://www.w3.org/2000/svg">
<g filter="url(#filter0_d_48_274)">
<g clip-path="url(#clip0_48_274)">
<path d="M17.6439 5.03442C14.1551 5.03442 11.2881 7.86201 11.2881 11.3793V21.3103C11.2881 21.6896 11.599 21.9999 11.9789 21.9999H15.5713C15.9513 21.9999 16.2622 21.6896 16.2622 21.3103V11.6551C16.2622 10.8965 16.8839 10.2758 17.6439 10.2758C18.4038 10.2758 19.0256 10.8965 19.0256 11.6551V21.3103C19.0256 21.6896 19.3364 21.9999 19.7164 21.9999H23.3088C23.6888 21.9999 23.9997 21.6896 23.9997 21.3103V11.3793C23.9997 7.89649 21.1672 5.03442 17.6439 5.03442Z" fill="#505F79"/>
<path d="M8.28325 8.27588H4.69085C4.31088 8.27588 4 8.58622 4 8.96553V21.3104C4 21.6897 4.31088 22 4.69085 22H8.28325C8.66321 22 8.97409 21.6897 8.97409 21.3104V8.96553C8.97409 8.58622 8.66321 8.27588 8.28325 8.27588Z" fill="#505F79"/>
<path d="M6.48705 2C5.10535 2 4 3.10345 4 4.48276C4 5.86207 5.10535 6.96552 6.48705 6.96552C7.86874 6.96552 8.97409 5.86207 8.97409 4.48276C8.97409 3.10345 7.86874 2 6.48705 2Z" fill="#505F79"/>
</g>
</g>
<defs>
<filter id="filter0_d_48_274" x="-2" y="0" width="32" height="32" filterUnits="userSpaceOnUse" color-interpolation-filters="sRGB">
<feFlood flood-opacity="0" result="BackgroundImageFix"/>
<feColorMatrix in="SourceAlpha" type="matrix" values="0 0 0 0 0 0 0 0 0 0 0 0 0 0 0 0 0 0 127 0" result="hardAlpha"/>
<feOffset dy="4"/>
<feGaussianBlur stdDeviation="2"/>
<feComposite in2="hardAlpha" operator="out"/>
<feColorMatrix type="matrix" values="0 0 0 0 0 0 0 0 0 0 0 0 0 0 0 0 0 0 0.25 0"/>
<feBlend mode="normal" in2="BackgroundImageFix" result="effect1_dropShadow_48_274"/>
<feBlend mode="normal" in="SourceGraphic" in2="effect1_dropShadow_48_274" result="shape"/>
</filter>
<clipPath id="clip0_48_274">
<rect width="20" height="20" fill="white" transform="translate(4 2)"/>
</clipPath>
</defs>
</svg>
